<svg xmlns="http://www.w3.org/2000/svg" viewBox="0 0 400 220" fill="none">
  <rect width="400" height="220" fill="#f4f2ef"/>
  <!-- fond partitions -->
  <g stroke="#d6d3d1" stroke-width="1.25" stroke-linecap="round">
    <path d="M48 52h104"/><path d="M48 66h96"/><path d="M48 80h108"/><path d="M248 48h104"/><path d="M248 62h88"/><path d="M248 76h100"/>
  </g>
  <!-- silhouettes chœur — hauteurs irrégulières -->
  <path fill="#74a2ff" fill-opacity="0.35" d="M78 168c0-22 10-34 22-34s22 12 22 34v52H78z"/>
  <path fill="#fff" stroke="#d6d3d1" stroke-width="1" d="M132 172c0-26 11-38 25-38s25 12 25 38v48h-50z"/>
  <path fill="#ff7a00" fill-opacity="0.45" d="M188 158c0-30 13-42 28-42s28 12 28 42v62h-56z"/>
  <path fill="#fff" stroke="#d6d3d1" stroke-width="1" d="M254 168c0-24 10-36 23-36s23 12 23 36v52h-46z"/>
  <path fill="#74a2ff" fill-opacity="0.28" d="M306 174c0-20 9-30 20-30s20 10 20 30v46h-40z"/>
  <!-- têtes -->
  <ellipse cx="100" cy="118" rx="11" ry="13" fill="#57534e" fill-opacity="0.55"/>
  <ellipse cx="157" cy="108" rx="12" ry="14" fill="#57534e" fill-opacity="0.5"/>
  <ellipse cx="216" cy="92" rx="13" ry="15" fill="#292524"/>
  <ellipse cx="277" cy="114" rx="11" ry="13" fill="#57534e" fill-opacity="0.48"/>
  <ellipse cx="326" cy="124" rx="10" ry="12" fill="#57534e" fill-opacity="0.42"/>
  <!-- baguette direction -->
  <path stroke="#1c1917" stroke-width="2.2" stroke-linecap="round" d="M52 138l38-62"/>
  <circle cx="54" cy="140" r="4" fill="#1c1917" fill-opacity="0.7"/>
</svg>
