<svg xmlns="http://www.w3.org/2000/svg" viewBox="0 0 400 220" fill="none">
  <rect width="400" height="220" fill="#292524"/>
  <!-- mur arrière -->
  <rect x="0" y="0" width="400" height="132" fill="#1c1917"/>
  <!-- sol -->
  <rect y="132" width="400" height="88" fill="#44403c"/>
  <!-- guirlande — rectangles pas des glow -->
  <g fill="#fef3c7">
    <rect x="56" y="28" width="8" height="12" rx="1"/><rect x="92" y="22" width="8" height="12" rx="1"/>
    <rect x="128" y="26" width="8" height="12" rx="1"/><rect x="164" y="20" width="8" height="12" rx="1"/>
    <rect x="200" y="24" width="8" height="12" rx="1"/><rect x="236" y="21" width="8" height="12" rx="1"/>
    <rect x="272" y="27" width="8" height="12" rx="1"/><rect x="308" y="23" width="8" height="12" rx="1"/>
    <rect x="344" y="28" width="8" height="12" rx="1"/>
  </g>
  <path stroke="#57534e" stroke-width="1.2" fill="none" d="M52 34 Q200 58 348 34"/>
  <!-- demi-cercle public / musiciens -->
  <path fill="#78716c" fill-opacity="0.35" d="M72 168c56-48 200-48 256 0v52H72z"/>
  <!-- silhouettes assises -->
  <g fill="#fafaf9" fill-opacity="0.85">
    <ellipse cx="118" cy="158" rx="9" ry="10"/><path d="M109 168h18v28h-18z"/>
    <ellipse cx="168" cy="152" rx="10" ry="11"/><path d="M158 164h20v32h-20z"/>
    <ellipse cx="232" cy="150" rx="11" ry="12"/><path d="M221 164h22v34h-22z"/>
    <ellipse cx="296" cy="156" rx="9" ry="10"/><path d="M287 166h18v30h-18z"/>
  </g>
  <!-- musicien debout -->
  <ellipse cx="200" cy="124" rx="12" ry="13" fill="#ff7a00" fill-opacity="0.75"/>
  <path fill="#ff7a00" fill-opacity="0.55" d="M184 138h32v46h-32z"/>
  <path stroke="#fafaf9" stroke-width="2" stroke-linecap="round" d="M212 118v-36"/>
  <!-- petite table -->
  <path fill="#57534e" d="M172 188h56v8h-56z"/>
</svg>
