<svg xmlns="http://www.w3.org/2000/svg" viewBox="0 0 400 220" fill="none">
  <rect width="400" height="220" fill="#ebe8e4"/>
  <!-- rideaux -->
  <path fill="#292524" d="M0 0h118L92 220H0z"/>
  <path fill="#292524" d="M400 0H282l26 220h92z"/>
  <!-- plancher -->
  <path fill="#d6d3d1" d="M118 178h164v42H118z"/>
  <!-- tapis scène -->
  <path fill="#1c1917" fill-opacity="0.08" d="M132 182h136v28H132z"/>
  <!-- pupitre + partition -->
  <path stroke="#57534e" stroke-width="2" stroke-linecap="round" d="M198 166v38"/>
  <path fill="#fafaf9" stroke="#a8a29e" stroke-width="1" d="M174 118h52v44h-52z"/>
  <path stroke="#78716c" stroke-width="1" stroke-linecap="round" d="M182 128h36M182 136h28M182 144h34"/>
  <!-- spot -->
  <path fill="#ff7a00" fill-opacity="0.22" d="M200 28 L268 172H132z"/>
  <ellipse cx="200" cy="174" rx="22" ry="5" fill="#ff7a00" fill-opacity="0.35"/>
  <!-- public stylisé -->
  <g fill="#57534e" fill-opacity="0.35">
    <circle cx="68" cy="198" r="5"/><circle cx="88" cy="200" r="5"/><circle cx="108" cy="198" r="5"/>
    <circle cx="292" cy="198" r="5"/><circle cx="312" cy="200" r="5"/><circle cx="332" cy="197" r="5"/>
  </g>
</svg>
