<svg xmlns="http://www.w3.org/2000/svg" viewBox="0 0 400 220" fill="none">
  <defs>
    <clipPath id="soleil-clip">
      <rect x="228" y="0" width="172" height="92"/>
    </clipPath>
  </defs>
  <!-- ciel aplati -->
  <rect width="400" height="220" fill="#fff7ed"/>
  <rect width="400" height="118" fill="#fde68a" fill-opacity="0.35"/>
  <!-- soleil derrière la ligne d’horizon -->
  <circle cx="308" cy="108" r="50" fill="#ff7a00" fill-opacity="0.88" clip-path="url(#soleil-clip)"/>
  <!-- collines -->
  <path fill="#c4d4a8" fill-opacity="0.55" d="M0 154c80-28 160-12 240 4s120 8 160-12v74H0z"/>
  <path fill="#a8b892" fill-opacity="0.45" d="M0 172c100-18 200 2 400-14v62H0z"/>
  <!-- bâtiment cours -->
  <path fill="#fafaf9" stroke="#d6d3d1" stroke-width="1" d="M148 118h104v82H148z"/>
  <path fill="#ebe8e4" d="M148 118h104v18H148z"/>
  <rect x="172" y="142" width="24" height="32" rx="1" fill="#1c1917" fill-opacity="0.15"/>
  <rect x="206" y="150" width="20" height="24" rx="1" fill="#1c1917" fill-opacity="0.12"/>
  <!-- portée au sol -->
  <g stroke="#78716c" stroke-opacity="0.35" stroke-width="1" stroke-linecap="round">
    <path d="M118 198h164"/><path d="M118 204h172"/><path d="M118 210h156"/>
  </g>
</svg>
