<svg xmlns="http://www.w3.org/2000/svg" viewBox="0 0 400 220" fill="none">
  <rect width="400" height="220" fill="#fafaf9"/>
  <rect width="400" height="220" fill="#74a2ff" fill-opacity="0.06"/>
  <!-- piano vue de dessus -->
  <path fill="#1c1917" d="M52 100h124v104H52z"/>
  <path fill="#fafaf9" d="M58 106h112v36H58z"/>
  <g fill="#e7e5e4">
    <rect x="62" y="148" width="11" height="48" rx="1"/><rect x="77" y="148" width="11" height="48" rx="1"/>
    <rect x="92" y="148" width="11" height="48" rx="1"/><rect x="107" y="148" width="11" height="48" rx="1"/>
    <rect x="122" y="148" width="11" height="48" rx="1"/><rect x="137" y="148" width="11" height="48" rx="1"/>
    <rect x="152" y="148" width="11" height="48" rx="1"/>
  </g>
  <!-- une seule ligne de voix, courbe lisse -->
  <path stroke="#ff7a00" stroke-width="3" stroke-linecap="round" stroke-linejoin="round" fill="none"
        d="M196 124c32-18 58-16 82 2s36 44 40 68"/>
  <!-- note au bout -->
  <ellipse cx="322" cy="58" rx="11" ry="9" fill="#74a2ff" fill-opacity="0.55"/>
  <path stroke="#74a2ff" stroke-width="2.5" stroke-linecap="round" d="M334 58v54"/>
</svg>
